<svg xmlns="http://www.w3.org/2000/svg" xmlns:xlink="http://www.w3.org/1999/xlink" width="1920" zoomAndPan="magnify" viewBox="0 0 1440 809.999993" height="1080" preserveAspectRatio="xMidYMid meet" version="1.0"><defs><g/><clipPath id="9c64e244ad"><path d="M 447 82 L 789 82 L 789 462 L 447 462 Z M 447 82 " clip-rule="nonzero"/></clipPath><clipPath id="3115e09ac6"><path d="M 370.160156 174.449219 L 624.550781 28.570312 L 790.203125 317.445312 L 535.8125 463.324219 Z M 370.160156 174.449219 " clip-rule="nonzero"/></clipPath><clipPath id="e5013ff96b"><path d="M 370.160156 174.449219 L 624.550781 28.570312 L 790.203125 317.445312 L 535.8125 463.324219 Z M 370.160156 174.449219 " clip-rule="nonzero"/></clipPath><clipPath id="2badae53a0"><path d="M 307 174 L 1114 174 L 1114 734 L 307 734 Z M 307 174 " clip-rule="nonzero"/></clipPath><clipPath id="73a62600ba"><path d="M 293.179688 592.089844 L 1038.960938 159.992188 L 1130.054688 317.214844 L 384.269531 749.308594 Z M 293.179688 592.089844 " clip-rule="nonzero"/></clipPath><clipPath id="90115f9c53"><path d="M 326.273438 572.914062 L 1004.507812 179.957031 C 1022.789062 169.367188 1046.191406 175.597656 1056.78125 193.875 L 1108.273438 282.75 C 1118.863281 301.027344 1112.628906 324.429688 1094.351562 335.019531 L 416.117188 727.980469 C 397.839844 738.570312 374.433594 732.335938 363.84375 714.058594 L 312.355469 625.1875 C 301.761719 606.90625 307.996094 583.503906 326.273438 572.914062 " clip-rule="nonzero"/></clipPath></defs><g clip-path="url(#9c64e244ad)"><g clip-path="url(#3115e09ac6)"><g clip-path="url(#e5013ff96b)"><path fill="#fdfdfd" d="M 497.289062 101.839844 C 481 111.179688 467.5 121.796875 458.597656 131.773438 C 454.144531 136.761719 450.820312 141.570312 448.921875 146.273438 C 447.027344 150.976562 446.527344 156.011719 448.945312 160.226562 C 449.324219 160.886719 449.714844 161.265625 450.109375 161.722656 C 450.296875 162.058594 450.523438 162.371094 450.792969 162.648438 L 450.941406 162.804688 L 451.066406 162.929688 L 478.167969 192.761719 C 476.898438 193.28125 475.65625 193.832031 474.378906 194.339844 C 454.558594 202.195312 445.203125 225.050781 455.1875 242.464844 L 455.226562 242.53125 C 462.140625 254.582031 476.3125 260.207031 490.210938 257.585938 C 487.019531 263.476562 486.792969 270.820312 490.347656 277.019531 C 494.796875 284.777344 503.589844 287.746094 511.527344 286.242188 C 523.664062 304.640625 541.960938 316.8125 561.863281 321.46875 L 531.398438 351.953125 C 528.304688 355.054688 526.0625 359.019531 525.179688 363.4375 C 517.199219 403.46875 525.941406 431.628906 533.042969 458.199219 C 533.132812 458.527344 533.253906 458.839844 533.414062 459.140625 C 533.574219 459.441406 533.765625 459.71875 533.992188 459.972656 C 534.214844 460.226562 534.464844 460.453125 534.742188 460.652344 C 535.015625 460.851562 535.3125 461.015625 535.625 461.144531 C 535.9375 461.273438 536.261719 461.367188 536.597656 461.421875 C 536.933594 461.480469 537.269531 461.496094 537.609375 461.476562 C 537.945312 461.453125 538.277344 461.394531 538.605469 461.296875 C 538.929688 461.199219 539.238281 461.0625 539.535156 460.894531 L 662.6875 390.273438 L 785.84375 319.652344 C 786.136719 319.480469 786.410156 319.28125 786.660156 319.050781 C 786.90625 318.820312 787.125 318.5625 787.316406 318.28125 C 787.507812 318 787.660156 317.699219 787.78125 317.382812 C 787.902344 317.066406 787.988281 316.738281 788.03125 316.402344 C 788.078125 316.066406 788.085938 315.730469 788.054688 315.390625 C 788.023438 315.050781 787.953125 314.722656 787.847656 314.402344 C 787.738281 314.078125 787.597656 313.773438 787.417969 313.484375 C 787.242188 313.195312 787.035156 312.929688 786.792969 312.6875 C 767.449219 293.136719 747.566406 271.367188 708.980469 258.035156 C 704.726562 256.570312 700.171875 256.496094 695.925781 257.605469 L 695.917969 257.609375 L 654.230469 268.5 C 660.261719 248.980469 659.003906 227.050781 649.261719 207.289062 C 654.8125 201.0625 656.347656 191.933594 651.988281 184.328125 C 648.460938 178.179688 642.085938 174.664062 635.449219 174.386719 C 644.652344 163.722656 646.894531 148.707031 640.011719 136.707031 C 630.015625 119.261719 605.53125 115.84375 588.734375 129.011719 L 588.726562 129.015625 C 587.660156 129.851562 586.5625 130.636719 585.492188 131.460938 L 573.371094 92.816406 C 573.371094 92.8125 573.371094 92.800781 573.371094 92.796875 L 573.359375 92.78125 C 573.34375 92.714844 573.34375 92.714844 573.332031 92.679688 L 573.3125 92.628906 C 573.3125 92.621094 573.304688 92.601562 573.304688 92.59375 C 573.300781 92.585938 573.289062 92.535156 573.289062 92.535156 L 573.261719 92.417969 C 573.152344 92.03125 572.992188 91.664062 572.78125 91.316406 C 572.585938 90.757812 572.46875 90.246094 572.097656 89.601562 C 569.683594 85.390625 565.082031 83.277344 560.066406 82.539062 C 555.046875 81.800781 549.21875 82.242188 542.664062 83.5625 C 529.558594 86.210938 513.578125 92.5 497.289062 101.839844 Z M 501.699219 109.53125 C 517.292969 100.589844 532.644531 94.632812 544.421875 92.257812 C 550.3125 91.070312 555.3125 90.804688 558.777344 91.3125 C 562.238281 91.824219 563.773438 92.921875 564.402344 94.015625 C 564.433594 94.078125 564.546875 94.332031 564.679688 94.816406 C 564.730469 94.992188 564.792969 95.167969 564.867188 95.335938 L 576.921875 133.777344 C 563.816406 134.253906 545.171875 140.6875 525.902344 151.738281 C 525.640625 151.882812 525.421875 152.070312 525.238281 152.300781 C 525.054688 152.535156 524.921875 152.796875 524.839844 153.082031 C 524.761719 153.367188 524.738281 153.65625 524.777344 153.953125 C 524.8125 154.246094 524.90625 154.523438 525.054688 154.777344 C 525.199219 155.035156 525.390625 155.253906 525.628906 155.4375 C 525.863281 155.617188 526.125 155.746094 526.410156 155.820312 C 526.699219 155.894531 526.988281 155.914062 527.285156 155.871094 C 527.578125 155.832031 527.851562 155.734375 528.105469 155.582031 C 546.34375 145.125 564.3125 139.089844 576.035156 138.257812 C 549.101562 157.894531 520.144531 174.402344 489.207031 187.882812 C 491.378906 184.738281 494.25 181.332031 497.867188 177.804688 C 498.066406 177.617188 498.226562 177.402344 498.34375 177.15625 C 498.460938 176.914062 498.535156 176.65625 498.558594 176.386719 C 498.582031 176.113281 498.554688 175.847656 498.484375 175.585938 C 498.410156 175.324219 498.289062 175.085938 498.128906 174.867188 C 497.96875 174.648438 497.773438 174.46875 497.542969 174.320312 C 497.3125 174.175781 497.066406 174.074219 496.800781 174.019531 C 496.535156 173.964844 496.265625 173.957031 496 174 C 495.730469 174.042969 495.476562 174.132812 495.242188 174.269531 C 495.070312 174.367188 494.910156 174.488281 494.769531 174.628906 C 490.515625 178.777344 487.09375 182.820312 484.628906 186.675781 L 457.585938 156.917969 L 457.558594 156.890625 C 457.445312 156.738281 457.320312 156.59375 457.1875 156.453125 C 456.839844 156.097656 456.675781 155.871094 456.640625 155.8125 C 456.011719 154.714844 455.839844 152.839844 457.148438 149.589844 C 458.457031 146.34375 461.210938 142.164062 465.210938 137.679688 C 473.210938 128.714844 486.105469 118.472656 501.699219 109.53125 Z M 564.796875 95.089844 L 564.804688 95.101562 L 564.796875 95.109375 C 564.796875 95.105469 564.796875 95.09375 564.796875 95.089844 Z M 517.308594 156.972656 C 512.117188 160.335938 507.332031 163.808594 503.046875 167.289062 C 502.816406 167.472656 502.632812 167.695312 502.492188 167.957031 C 502.351562 168.214844 502.265625 168.488281 502.234375 168.78125 C 502.203125 169.074219 502.230469 169.363281 502.3125 169.644531 C 502.398438 169.929688 502.53125 170.183594 502.71875 170.414062 C 502.902344 170.640625 503.125 170.828125 503.382812 170.964844 C 503.644531 171.105469 503.917969 171.191406 504.210938 171.222656 C 504.503906 171.253906 504.792969 171.226562 505.074219 171.140625 C 505.359375 171.058594 505.613281 170.921875 505.84375 170.734375 C 509.996094 167.363281 514.652344 163.980469 519.71875 160.703125 C 519.964844 160.542969 520.171875 160.34375 520.339844 160.101562 C 520.507812 159.859375 520.625 159.59375 520.6875 159.304688 C 520.75 159.015625 520.753906 158.726562 520.699219 158.4375 C 520.648438 158.148438 520.542969 157.878906 520.382812 157.632812 C 520.222656 157.386719 520.019531 157.175781 519.777344 157.011719 C 519.535156 156.84375 519.269531 156.726562 518.980469 156.667969 C 518.695312 156.605469 518.40625 156.601562 518.113281 156.652344 C 517.824219 156.707031 517.554688 156.8125 517.308594 156.972656 Z M 474.886719 203.847656 C 475.773438 203.386719 476.695312 202.960938 477.648438 202.585938 C 480.863281 201.308594 484.019531 199.945312 487.195312 198.605469 C 487.261719 198.582031 487.332031 198.558594 487.398438 198.53125 C 487.507812 198.484375 487.617188 198.429688 487.726562 198.382812 C 491.796875 196.664062 495.835938 194.894531 499.84375 193.070312 C 500.332031 192.847656 500.816406 192.625 501.304688 192.402344 C 505.324219 190.558594 509.316406 188.675781 513.265625 186.730469 C 513.425781 186.652344 513.578125 186.570312 513.738281 186.492188 C 530.402344 178.261719 546.46875 169.105469 561.9375 159.011719 C 562.25 158.804688 562.570312 158.605469 562.882812 158.398438 C 566.40625 156.089844 569.886719 153.71875 573.34375 151.3125 C 573.9375 150.898438 574.535156 150.484375 575.128906 150.070312 C 578.59375 147.628906 582.03125 145.148438 585.433594 142.613281 C 585.554688 142.519531 585.679688 142.433594 585.800781 142.34375 C 585.84375 142.304688 585.890625 142.265625 585.933594 142.226562 C 588.695312 140.160156 591.480469 138.121094 594.203125 135.988281 C 607.15625 125.828125 625.199219 128.703125 632.316406 141.121094 C 638.171875 151.335938 634.910156 165.113281 623.914062 173.046875 C 623.011719 173.699219 622.027344 174.382812 621.074219 175.046875 C 620.925781 174.945312 620.761719 174.863281 620.613281 174.761719 C 618.933594 173.632812 617.234375 172.5625 615.496094 171.554688 C 615.300781 171.441406 615.105469 171.335938 614.90625 171.226562 C 613.164062 170.234375 611.40625 169.285156 609.605469 168.425781 C 609.03125 168.148438 608.4375 167.917969 607.855469 167.652344 C 606.375 166.992188 604.898438 166.3125 603.386719 165.746094 C 601.199219 164.914062 598.980469 164.179688 596.722656 163.566406 C 596.453125 163.496094 596.179688 163.449219 595.902344 163.429688 C 579.910156 162.214844 559.527344 170.800781 541.042969 182.230469 C 522.554688 193.664062 506.246094 207.765625 499.933594 220.804688 C 499.789062 221.101562 499.679688 221.410156 499.605469 221.734375 C 499.136719 223.761719 498.773438 225.8125 498.484375 227.875 C 498.28125 229.277344 498.167969 230.691406 498.042969 232.101562 C 497.992188 232.703125 497.914062 233.300781 497.875 233.90625 C 497.765625 235.554688 497.730469 237.210938 497.71875 238.875 C 497.71875 239.242188 497.710938 239.609375 497.710938 239.976562 C 497.722656 241.609375 497.777344 243.242188 497.878906 244.882812 C 497.890625 245.101562 497.882812 245.320312 497.898438 245.539062 C 496.875 246.015625 495.824219 246.507812 494.835938 246.945312 C 482.410156 252.472656 468.796875 248.359375 462.925781 238.117188 L 462.886719 238.050781 C 456.222656 226.433594 461.605469 210.75 474.886719 203.847656 Z M 552.332031 185.898438 C 554.566406 184.664062 556.808594 183.496094 559.054688 182.394531 C 561.296875 181.292969 563.53125 180.261719 565.746094 179.3125 C 565.746094 179.3125 565.753906 179.308594 565.753906 179.308594 C 567.96875 178.359375 570.160156 177.496094 572.308594 176.71875 C 572.308594 176.71875 572.316406 176.714844 572.316406 176.714844 C 572.765625 176.550781 573.1875 176.441406 573.632812 176.289062 C 577.457031 174.960938 581.15625 173.882812 584.566406 173.203125 C 586.46875 172.824219 588.289062 172.542969 590.003906 172.390625 C 590.003906 172.390625 590.015625 172.394531 590.015625 172.394531 C 591.734375 172.242188 593.351562 172.207031 594.847656 172.296875 C 594.847656 172.296875 594.859375 172.300781 594.859375 172.300781 C 597.03125 172.90625 599.171875 173.636719 601.285156 174.433594 C 602.796875 175.011719 604.28125 175.683594 605.757812 176.363281 C 606.328125 176.621094 606.902344 176.855469 607.464844 177.128906 C 609.359375 178.0625 611.222656 179.070312 613.042969 180.167969 C 613.066406 180.183594 613.085938 180.199219 613.109375 180.210938 C 614.996094 181.355469 616.84375 182.578125 618.640625 183.898438 C 618.683594 183.929688 618.726562 183.960938 618.773438 183.992188 C 619.71875 184.683594 620.699219 185.3125 621.613281 186.054688 C 622.019531 186.386719 622.472656 186.636719 622.96875 186.808594 C 623.464844 186.976562 623.972656 187.058594 624.5 187.046875 C 625.023438 187.039062 625.53125 186.9375 626.019531 186.746094 C 626.507812 186.558594 626.949219 186.289062 627.34375 185.941406 C 627.898438 185.457031 628.5 185.019531 629.15625 184.644531 C 634.515625 181.570312 641.21875 183.386719 644.289062 188.742188 C 647.097656 193.632812 645.746094 199.621094 641.410156 202.96875 C 640.996094 203.289062 640.644531 203.675781 640.367188 204.121094 C 640.085938 204.566406 639.890625 205.046875 639.78125 205.5625 C 639.671875 206.078125 639.65625 206.59375 639.730469 207.117188 C 639.808594 207.636719 639.96875 208.128906 640.222656 208.59375 C 651.445312 229.34375 651.859375 252.953125 643.363281 272.738281 C 643.351562 272.761719 643.335938 272.785156 643.324219 272.808594 C 643.265625 272.917969 643.207031 273.03125 643.15625 273.144531 C 640.300781 279.691406 636.46875 285.792969 631.734375 291.234375 C 631.640625 291.339844 631.550781 291.453125 631.453125 291.5625 C 630.640625 292.484375 629.773438 293.359375 628.90625 294.242188 C 628.195312 294.960938 627.488281 295.679688 626.742188 296.371094 C 626.050781 297.015625 625.339844 297.640625 624.617188 298.257812 C 623.585938 299.136719 622.515625 299.984375 621.425781 300.808594 C 620.839844 301.25 620.269531 301.707031 619.667969 302.136719 C 617.902344 303.378906 616.082031 304.570312 614.171875 305.667969 C 612.261719 306.761719 610.3125 307.730469 608.347656 308.625 C 607.675781 308.929688 606.992188 309.191406 606.316406 309.472656 C 605.054688 310 603.78125 310.492188 602.503906 310.941406 C 601.605469 311.25 600.707031 311.550781 599.800781 311.820312 C 598.828125 312.117188 597.847656 312.363281 596.871094 312.613281 C 595.671875 312.914062 594.476562 313.222656 593.269531 313.460938 C 593.128906 313.488281 592.984375 313.507812 592.84375 313.535156 C 585.757812 314.875 578.554688 315.097656 571.460938 314.257812 C 571.351562 314.246094 571.238281 314.242188 571.125 314.242188 C 549.714844 311.613281 529.496094 299.324219 517.230469 279.121094 C 516.960938 278.671875 516.625 278.289062 516.21875 277.960938 C 515.8125 277.632812 515.363281 277.386719 514.867188 277.21875 C 514.375 277.050781 513.867188 276.972656 513.347656 276.984375 C 512.824219 276.996094 512.320312 277.09375 511.835938 277.285156 C 507.363281 279.015625 500.738281 277.304688 498.042969 272.605469 C 494.972656 267.25 496.792969 260.546875 502.152344 257.472656 C 502.808594 257.097656 503.488281 256.796875 504.1875 256.566406 C 504.6875 256.398438 505.140625 256.15625 505.550781 255.828125 C 505.964844 255.503906 506.304688 255.113281 506.578125 254.667969 C 506.851562 254.21875 507.042969 253.738281 507.144531 253.226562 C 507.246094 252.710938 507.257812 252.195312 507.179688 251.675781 C 507 250.523438 506.933594 249.367188 506.8125 248.214844 C 506.808594 248.109375 506.804688 248.007812 506.792969 247.90625 C 506.386719 243.910156 506.3125 239.914062 506.554688 235.972656 C 506.796875 232.03125 507.359375 228.136719 508.214844 224.324219 C 511.222656 218.332031 518.300781 210.550781 527.425781 202.9375 C 527.4375 202.925781 527.453125 202.914062 527.464844 202.902344 C 529.292969 201.378906 531.207031 199.863281 533.183594 198.367188 C 537.140625 195.375 541.355469 192.46875 545.707031 189.777344 C 547.886719 188.429688 550.101562 187.132812 552.332031 185.898438 Z M 525.214844 220.582031 C 523.558594 221.589844 522 222.9375 520.722656 224.535156 C 517.195312 228.855469 516.546875 234.476562 517.054688 238.15625 C 517.195312 240.03125 517.789062 241.535156 518.136719 242.546875 C 518.53125 243.570312 518.835938 244.113281 518.835938 244.113281 C 518.835938 244.113281 519.320312 241.625 520.167969 238.339844 C 520.976562 235.023438 522.570312 231.058594 525.058594 227.96875 C 527.480469 224.835938 531.019531 222.503906 534.082031 221.027344 C 535.601562 220.421875 536.910156 219.613281 537.953125 219.328125 C 538.945312 218.929688 539.5 218.628906 539.5 218.628906 C 539.5 218.628906 537.195312 217.777344 533.304688 218.03125 C 531.460938 218.316406 529.128906 218.542969 526.902344 219.6875 C 526.335938 219.941406 525.769531 220.246094 525.214844 220.582031 Z M 583.425781 187.203125 C 582.859375 187.507812 582.308594 187.84375 581.804688 188.203125 C 579.691406 189.546875 578.3125 191.441406 577.140625 192.890625 C 574.953125 196.125 574.527344 198.542969 574.527344 198.542969 C 574.527344 198.542969 575.0625 198.21875 575.910156 197.558594 C 576.683594 196.804688 578.046875 196.089844 579.332031 195.078125 C 582.148438 193.183594 585.953125 191.308594 589.882812 190.796875 C 593.804688 190.207031 598.03125 190.835938 601.304688 191.8125 C 604.5625 192.738281 606.960938 193.578125 606.960938 193.578125 C 606.960938 193.578125 606.640625 193.042969 605.960938 192.183594 C 605.261719 191.375 604.265625 190.105469 602.71875 189.035156 C 599.800781 186.738281 594.617188 184.457031 589.109375 185.320312 C 587.085938 185.613281 585.132812 186.28125 583.425781 187.203125 Z M 536.507812 232.660156 C 533.433594 234.425781 532.105469 238.199219 532.738281 242.160156 C 532.867188 240.773438 533.566406 239.460938 534.867188 238.714844 C 536.988281 237.496094 539.703125 238.230469 540.917969 240.351562 C 542.136719 242.476562 541.402344 245.1875 539.277344 246.40625 C 537.34375 247.515625 534.988281 246.941406 533.648438 245.25 C 533.855469 245.730469 534.054688 246.222656 534.324219 246.691406 C 537.371094 252 543.28125 254.328125 547.535156 251.890625 C 551.789062 249.453125 552.765625 243.171875 549.71875 237.863281 C 546.671875 232.550781 540.761719 230.222656 536.507812 232.660156 Z M 586.539062 203.972656 C 583.464844 205.734375 582.136719 209.507812 582.769531 213.472656 C 582.898438 212.082031 583.597656 210.769531 584.898438 210.023438 C 587.019531 208.804688 589.734375 209.539062 590.949219 211.664062 C 592.167969 213.785156 591.433594 216.496094 589.308594 217.714844 C 587.375 218.824219 585.019531 218.25 583.679688 216.558594 C 583.886719 217.042969 584.085938 217.53125 584.355469 218 C 587.402344 223.3125 593.3125 225.640625 597.566406 223.199219 C 601.820312 220.761719 602.796875 214.484375 599.75 209.171875 C 596.707031 203.859375 590.792969 201.53125 586.539062 203.972656 Z M 568.394531 252.664062 C 568.144531 252.816406 567.929688 253.007812 567.753906 253.242188 C 567.574219 253.480469 567.453125 253.738281 567.378906 254.023438 C 567.304688 254.308594 567.292969 254.597656 567.332031 254.886719 C 567.375 255.179688 567.472656 255.449219 567.621094 255.703125 C 568.914062 257.957031 570.777344 259.332031 572.78125 260.3125 C 571.34375 261.921875 569.832031 263.335938 568.710938 265.769531 C 568.683594 265.828125 568.660156 265.886719 568.640625 265.949219 C 563.910156 279.007812 555.878906 283.296875 548.042969 284.078125 C 540.210938 284.859375 532.359375 281.496094 529.8125 279.160156 C 529.617188 278.984375 529.398438 278.84375 529.152344 278.742188 C 528.90625 278.644531 528.652344 278.589844 528.386719 278.582031 C 528.121094 278.570312 527.863281 278.609375 527.613281 278.691406 C 527.363281 278.777344 527.132812 278.902344 526.925781 279.066406 C 526.71875 279.230469 526.546875 279.429688 526.410156 279.65625 C 526.273438 279.882812 526.183594 280.125 526.132812 280.386719 C 526.082031 280.644531 526.082031 280.90625 526.125 281.167969 C 526.167969 281.429688 526.257812 281.671875 526.390625 281.902344 C 526.511719 282.117188 526.691406 282.226562 526.816406 282.4375 C 526.816406 282.4375 526.828125 282.441406 526.828125 282.441406 C 536.160156 298.089844 552.019531 302.625 566.0625 300.105469 C 573.644531 298.746094 580.734375 295.410156 586.234375 290.792969 C 590.609375 294.183594 597.40625 294.53125 603.285156 291.15625 C 609.328125 287.691406 612.441406 281.410156 611.484375 275.808594 C 618.980469 273.617188 626.242188 268.882812 631.746094 262.441406 C 641.015625 251.59375 645.109375 235.613281 636.316406 219.65625 C 636.316406 219.65625 636.320312 219.644531 636.320312 219.644531 C 636.203125 219.429688 636.195312 219.21875 636.074219 219.003906 C 635.941406 218.773438 635.777344 218.574219 635.574219 218.40625 C 635.371094 218.234375 635.144531 218.105469 634.894531 218.015625 C 634.644531 217.929688 634.386719 217.886719 634.125 217.890625 C 633.859375 217.890625 633.601562 217.941406 633.355469 218.035156 C 633.109375 218.128906 632.886719 218.265625 632.6875 218.441406 C 632.488281 218.613281 632.324219 218.816406 632.199219 219.050781 C 632.070312 219.285156 631.988281 219.53125 631.953125 219.792969 C 631.914062 220.054688 631.925781 220.316406 631.980469 220.574219 C 632.707031 223.949219 631.648438 232.425781 627.015625 238.792969 C 622.382812 245.160156 614.625 249.925781 600.964844 247.414062 C 600.902344 247.398438 600.839844 247.390625 600.777344 247.382812 C 597.308594 247.046875 594.746094 247.855469 592.171875 248.632812 C 592.214844 246.597656 591.882812 244.503906 590.714844 242.460938 C 590.570312 242.203125 590.378906 241.980469 590.148438 241.796875 C 589.914062 241.613281 589.65625 241.480469 589.371094 241.402344 C 589.082031 241.324219 588.792969 241.300781 588.5 241.339844 C 588.203125 241.375 587.929688 241.46875 587.671875 241.617188 C 587.414062 241.761719 587.195312 241.953125 587.011719 242.191406 C 586.832031 242.425781 586.703125 242.6875 586.628906 242.972656 C 586.554688 243.261719 586.535156 243.550781 586.578125 243.84375 C 586.617188 244.140625 586.714844 244.414062 586.863281 244.667969 C 588.210938 247.019531 588.195312 249.050781 587.4375 250.964844 C 586.714844 252.800781 585.121094 254.441406 583.222656 255.601562 C 581.136719 256.859375 578.695312 257.484375 576.578125 257.144531 C 574.558594 256.820312 572.808594 255.828125 571.46875 253.496094 C 571.324219 253.234375 571.132812 253.011719 570.898438 252.824219 C 570.664062 252.640625 570.398438 252.507812 570.109375 252.429688 C 569.820312 252.351562 569.527344 252.332031 569.230469 252.375 C 568.929688 252.414062 568.652344 252.511719 568.394531 252.664062 Z M 591.191406 253.046875 C 593.339844 252 596.335938 251.414062 600.34375 251.800781 L 600.15625 251.769531 C 615.15625 254.527344 625.128906 248.914062 630.597656 241.398438 C 633.203125 237.816406 634.765625 233.921875 635.6875 230.246094 C 638.53125 241.417969 635.046875 251.742188 628.371094 259.554688 C 619.921875 269.441406 606.710938 274.792969 596.960938 272.027344 C 596.949219 272.023438 596.9375 272.019531 596.925781 272.019531 C 596.433594 271.886719 595.90625 271.675781 595.222656 271.417969 C 594.914062 271.300781 594.59375 271.257812 594.265625 271.285156 C 593.9375 271.3125 593.628906 271.40625 593.34375 271.570312 C 593.054688 271.734375 592.816406 271.953125 592.628906 272.222656 C 592.4375 272.492188 592.316406 272.789062 592.257812 273.117188 C 592.136719 273.832031 592.050781 274.402344 591.914062 274.902344 C 591.914062 274.910156 591.910156 274.917969 591.910156 274.925781 C 589.371094 284.734375 578.078125 293.4375 565.277344 295.734375 C 555.164062 297.550781 544.492188 295.34375 536.285156 287.246094 C 539.925781 288.308594 544.074219 288.925781 548.484375 288.488281 C 557.730469 287.5625 567.613281 281.789062 572.808594 267.449219 L 572.742188 267.628906 C 574.136719 264.609375 575.769531 262.644531 577.445312 261.25 C 580.148438 261.324219 582.894531 261 585.230469 259.660156 C 585.351562 259.589844 585.386719 259.425781 585.503906 259.351562 C 585.566406 259.316406 585.652344 259.351562 585.710938 259.3125 C 588.171875 257.9375 589.894531 255.589844 591.191406 253.046875 Z M 587.332031 302.8125 C 587.332031 302.8125 589.792969 303.796875 593.683594 304.238281 C 597.515625 304.65625 603.101562 304.515625 608.121094 301.929688 C 610.582031 300.644531 612.882812 298.953125 614.546875 296.964844 C 616.328125 295.066406 617.328125 292.859375 618.230469 291.109375 C 619.796875 287.335938 619.863281 284.746094 619.863281 284.746094 C 619.863281 284.746094 619.375 285.203125 618.640625 286.074219 C 617.992188 287.019531 616.726562 288.082031 615.625 289.441406 C 613.117188 292.101562 609.640625 295.066406 605.644531 297 C 601.703125 298.996094 597.117188 300.253906 593.492188 301.132812 C 589.878906 302.011719 587.332031 302.8125 587.332031 302.8125 Z M 650.300781 278.6875 L 668.832031 273.851562 L 681.230469 282.074219 L 669.441406 297.328125 C 669.179688 297.671875 669.027344 298.054688 668.988281 298.484375 C 668.949219 298.914062 669.03125 299.320312 669.230469 299.703125 C 669.429688 300.085938 669.714844 300.386719 670.089844 300.601562 C 670.464844 300.816406 670.867188 300.914062 671.296875 300.894531 L 694.601562 299.835938 L 695.089844 335.160156 C 695.078125 335.464844 695.125 335.761719 695.234375 336.046875 C 695.34375 336.332031 695.503906 336.582031 695.714844 336.800781 C 695.929688 337.019531 696.175781 337.1875 696.457031 337.304688 C 696.738281 337.421875 697.03125 337.480469 697.339844 337.472656 C 697.644531 337.46875 697.933594 337.40625 698.214844 337.28125 C 698.492188 337.15625 698.734375 336.980469 698.941406 336.753906 C 699.148438 336.53125 699.300781 336.273438 699.402344 335.984375 C 699.503906 335.699219 699.542969 335.402344 699.519531 335.097656 L 699.011719 297.488281 C 699.007812 297.191406 698.945312 296.902344 698.824219 296.628906 C 698.703125 296.351562 698.53125 296.113281 698.3125 295.90625 C 698.09375 295.699219 697.84375 295.546875 697.5625 295.441406 C 697.28125 295.339844 696.988281 295.292969 696.691406 295.308594 L 675.875 296.253906 L 686.203125 282.90625 C 686.390625 282.660156 686.523438 282.390625 686.597656 282.089844 C 686.675781 281.792969 686.6875 281.488281 686.636719 281.183594 C 686.585938 280.878906 686.476562 280.597656 686.308594 280.339844 C 686.140625 280.082031 685.929688 279.867188 685.671875 279.695312 L 674.59375 272.34375 L 698.160156 266.1875 C 700.804688 265.492188 703.597656 265.566406 706.074219 266.417969 C 740.226562 278.21875 758.140625 296.554688 776.238281 314.9375 L 699.847656 358.746094 L 699.671875 346.109375 C 699.671875 345.710938 699.574219 345.339844 699.375 344.996094 C 699.175781 344.652344 698.90625 344.378906 698.558594 344.179688 C 698.214844 343.984375 697.84375 343.882812 697.445312 343.886719 C 697.046875 343.886719 696.675781 343.988281 696.335938 344.191406 C 695.984375 344.394531 695.710938 344.675781 695.515625 345.027344 C 695.320312 345.382812 695.226562 345.761719 695.238281 346.164062 L 695.441406 361.269531 L 681.722656 369.136719 L 649.097656 281.257812 C 649.527344 280.414062 649.902344 279.546875 650.300781 278.6875 Z M 570.96875 324.890625 L 630.984375 398.234375 L 617.257812 406.105469 L 606.457031 399.582031 C 606.207031 399.429688 605.933594 399.332031 605.644531 399.285156 C 605.351562 399.242188 605.0625 399.253906 604.777344 399.324219 C 604.492188 399.394531 604.230469 399.515625 603.992188 399.691406 C 603.757812 399.863281 603.5625 400.078125 603.410156 400.328125 C 603.253906 400.582031 603.15625 400.851562 603.113281 401.144531 C 603.066406 401.433594 603.082031 401.722656 603.152344 402.007812 C 603.222656 402.292969 603.34375 402.554688 603.519531 402.792969 C 603.691406 403.027344 603.90625 403.222656 604.160156 403.375 L 612.863281 408.625 L 581 426.898438 C 573.976562 414.777344 566.933594 404.367188 560.78125 396.050781 C 560.617188 395.824219 560.417969 395.632812 560.183594 395.480469 C 559.949219 395.328125 559.695312 395.226562 559.421875 395.167969 C 559.144531 395.113281 558.871094 395.109375 558.59375 395.160156 C 558.320312 395.207031 558.0625 395.304688 557.820312 395.453125 C 557.554688 395.617188 557.332031 395.828125 557.15625 396.085938 C 556.976562 396.34375 556.859375 396.625 556.804688 396.933594 C 556.746094 397.242188 556.753906 397.546875 556.824219 397.851562 C 556.898438 398.15625 557.027344 398.433594 557.21875 398.683594 C 563.28125 406.882812 570.226562 417.152344 577.148438 429.105469 L 540.316406 450.226562 C 533.589844 425.320312 526.808594 400.601562 533.875 365.167969 C 534.386719 362.601562 535.734375 360.160156 537.671875 358.21875 L 551.140625 344.746094 L 551.796875 356.464844 C 551.8125 356.773438 551.890625 357.066406 552.03125 357.34375 C 552.167969 357.617188 552.355469 357.855469 552.59375 358.050781 C 552.832031 358.25 553.097656 358.390625 553.394531 358.476562 C 553.691406 358.5625 553.992188 358.585938 554.296875 358.546875 L 571.03125 356.375 L 559.703125 373.859375 C 559.539062 374.113281 559.433594 374.386719 559.378906 374.683594 C 559.328125 374.976562 559.335938 375.273438 559.402344 375.5625 C 559.46875 375.855469 559.589844 376.125 559.765625 376.367188 C 559.941406 376.609375 560.160156 376.808594 560.417969 376.964844 L 568.707031 381.964844 C 568.957031 382.128906 569.234375 382.238281 569.53125 382.292969 C 569.824219 382.34375 570.121094 382.335938 570.414062 382.269531 C 570.710938 382.203125 570.980469 382.082031 571.222656 381.90625 C 571.46875 381.726562 571.667969 381.511719 571.824219 381.25 C 571.976562 380.992188 572.078125 380.714844 572.117188 380.417969 C 572.160156 380.117188 572.144531 379.824219 572.066406 379.53125 C 571.988281 379.242188 571.855469 378.976562 571.667969 378.742188 C 571.484375 378.503906 571.257812 378.3125 570.992188 378.167969 L 564.667969 374.347656 L 577.351562 354.765625 C 577.585938 354.40625 577.707031 354.007812 577.707031 353.578125 C 577.710938 353.144531 577.597656 352.746094 577.367188 352.382812 C 577.140625 352.015625 576.828125 351.742188 576.4375 351.558594 C 576.046875 351.375 575.640625 351.308594 575.210938 351.363281 L 556.089844 353.832031 L 555.34375 340.527344 Z M 575.527344 323.472656 C 583.195312 323.910156 590.929688 323.203125 598.527344 321.335938 L 604.683594 359.085938 Z M 646.25 286.324219 L 661.222656 326.664062 L 632.597656 302.996094 C 637.964844 298.035156 642.542969 292.429688 646.25 286.324219 Z M 602.824219 320.140625 C 603.617188 319.894531 604.414062 319.664062 605.203125 319.394531 L 624.570312 332.25 C 624.921875 332.484375 625.308594 332.605469 625.726562 332.621094 C 626.144531 332.632812 626.539062 332.535156 626.902344 332.328125 C 627.265625 332.117188 627.550781 331.828125 627.75 331.460938 C 627.949219 331.089844 628.039062 330.695312 628.015625 330.277344 L 626.742188 307.890625 C 627.023438 307.675781 627.289062 307.453125 627.566406 307.238281 C 628.101562 306.816406 628.636719 306.398438 629.15625 305.964844 C 629.167969 305.957031 629.179688 305.945312 629.191406 305.9375 L 661.816406 332.921875 L 656.15625 339.761719 L 640.433594 326.746094 C 640.09375 326.464844 639.707031 326.300781 639.265625 326.25 C 638.828125 326.199219 638.410156 326.273438 638.015625 326.472656 C 637.621094 326.671875 637.316406 326.964844 637.09375 327.347656 C 636.875 327.730469 636.777344 328.140625 636.800781 328.582031 L 638.132812 351.914062 L 618.664062 338.984375 C 618.296875 338.742188 617.894531 338.621094 617.453125 338.617188 C 617.011719 338.617188 616.609375 338.734375 616.238281 338.972656 C 615.871094 339.210938 615.597656 339.53125 615.417969 339.933594 C 615.238281 340.335938 615.183594 340.753906 615.253906 341.1875 L 618.535156 361.335938 L 609.777344 362.765625 Z M 610.273438 317.433594 C 611.039062 317.109375 611.804688 316.773438 612.566406 316.417969 C 614.59375 315.488281 616.605469 314.492188 618.582031 313.359375 C 619.925781 312.585938 621.199219 311.746094 622.472656 310.90625 L 623.335938 326.105469 Z M 703.125 273.382812 C 702.71875 273.648438 702.429688 274.011719 702.261719 274.464844 C 702.09375 274.921875 702.078125 275.382812 702.214844 275.851562 C 702.214844 275.851562 704.171875 282.992188 708.597656 294.488281 C 708.699219 294.765625 708.851562 295.015625 709.050781 295.234375 C 709.253906 295.453125 709.492188 295.621094 709.761719 295.746094 C 710.03125 295.867188 710.316406 295.933594 710.613281 295.941406 C 710.910156 295.949219 711.199219 295.902344 711.476562 295.792969 C 711.753906 295.6875 712 295.53125 712.214844 295.324219 C 712.429688 295.121094 712.597656 294.878906 712.714844 294.609375 C 712.832031 294.335938 712.894531 294.050781 712.898438 293.753906 C 712.902344 293.457031 712.847656 293.167969 712.734375 292.894531 C 708.375 281.5625 706.492188 274.671875 706.492188 274.671875 C 706.449219 274.503906 706.386719 274.339844 706.300781 274.183594 C 706.21875 274.027344 706.117188 273.886719 706 273.753906 C 705.882812 273.621094 705.75 273.507812 705.605469 273.40625 C 705.460938 273.304688 705.308594 273.226562 705.140625 273.160156 C 704.976562 273.097656 704.808594 273.054688 704.632812 273.03125 C 704.457031 273.011719 704.28125 273.007812 704.105469 273.027344 C 703.929688 273.046875 703.761719 273.085938 703.59375 273.144531 C 703.429688 273.207031 703.273438 273.285156 703.125 273.382812 Z M 538.765625 372.480469 C 538.488281 372.667969 538.265625 372.902344 538.09375 373.1875 C 537.921875 373.472656 537.820312 373.78125 537.789062 374.109375 C 537.753906 374.441406 537.792969 374.765625 537.90625 375.078125 C 538.019531 375.390625 538.195312 375.664062 538.429688 375.898438 C 538.429688 375.898438 543.125 380.695312 550.253906 389.621094 C 550.433594 389.855469 550.65625 390.046875 550.914062 390.195312 C 551.171875 390.339844 551.449219 390.433594 551.742188 390.46875 C 552.039062 390.503906 552.328125 390.480469 552.617188 390.398438 C 552.902344 390.320312 553.160156 390.183594 553.394531 390 C 553.625 389.8125 553.8125 389.589844 553.957031 389.328125 C 554.097656 389.070312 554.1875 388.789062 554.21875 388.496094 C 554.246094 388.199219 554.21875 387.910156 554.132812 387.625 C 554.046875 387.339844 553.910156 387.082031 553.722656 386.855469 C 546.484375 377.789062 541.605469 372.800781 541.605469 372.800781 C 541.425781 372.609375 541.21875 372.457031 540.984375 372.339844 C 540.75 372.226562 540.503906 372.152344 540.246094 372.125 C 539.984375 372.09375 539.726562 372.109375 539.472656 372.171875 C 539.21875 372.234375 538.984375 372.335938 538.765625 372.480469 Z M 620.449219 345.496094 L 639.367188 358.050781 C 639.71875 358.28125 640.101562 358.402344 640.519531 358.417969 C 640.9375 358.429688 641.328125 358.332031 641.691406 358.121094 C 642.054688 357.914062 642.335938 357.628906 642.535156 357.257812 C 642.734375 356.890625 642.824219 356.5 642.804688 356.082031 L 641.519531 333.414062 L 655.042969 344.59375 C 655.269531 344.78125 655.523438 344.917969 655.804688 345.003906 C 656.085938 345.089844 656.375 345.121094 656.667969 345.09375 C 656.960938 345.066406 657.238281 344.980469 657.496094 344.84375 C 657.757812 344.707031 657.980469 344.523438 658.167969 344.296875 L 664.792969 336.285156 L 677.8125 371.378906 L 658.277344 382.582031 L 634.894531 395.992188 L 611.183594 367.027344 L 621.441406 365.355469 C 621.734375 365.308594 622.003906 365.207031 622.253906 365.054688 C 622.503906 364.898438 622.714844 364.703125 622.886719 364.460938 C 623.058594 364.222656 623.179688 363.960938 623.246094 363.675781 C 623.3125 363.386719 623.324219 363.097656 623.277344 362.808594 Z M 714.160156 303.074219 C 713.921875 303.210938 713.714844 303.386719 713.542969 303.601562 C 713.367188 303.8125 713.238281 304.050781 713.152344 304.3125 C 713.066406 304.574219 713.03125 304.839844 713.046875 305.113281 C 713.058594 305.390625 713.121094 305.652344 713.234375 305.902344 C 716.195312 312.820312 719.816406 320.625 724.164062 329.019531 C 724.289062 329.296875 724.464844 329.535156 724.691406 329.738281 C 724.914062 329.941406 725.171875 330.09375 725.457031 330.191406 C 725.742188 330.289062 726.039062 330.328125 726.339844 330.304688 C 726.644531 330.285156 726.929688 330.203125 727.199219 330.0625 C 727.46875 329.925781 727.699219 329.738281 727.890625 329.503906 C 728.085938 329.269531 728.222656 329.007812 728.308594 328.714844 C 728.394531 328.425781 728.417969 328.128906 728.382812 327.828125 C 728.34375 327.527344 728.25 327.246094 728.097656 326.984375 C 723.808594 318.691406 720.238281 310.976562 717.3125 304.152344 C 717.191406 303.855469 717.015625 303.601562 716.78125 303.382812 C 716.550781 303.164062 716.28125 303.003906 715.980469 302.898438 C 715.679688 302.796875 715.371094 302.761719 715.050781 302.792969 C 714.734375 302.820312 714.4375 302.917969 714.160156 303.074219 Z M 578 383.78125 C 577.835938 383.878906 577.683594 384 577.550781 384.136719 C 577.417969 384.273438 577.300781 384.425781 577.207031 384.59375 C 577.113281 384.761719 577.042969 384.941406 576.996094 385.125 C 576.945312 385.3125 576.921875 385.5 576.921875 385.695312 C 576.925781 385.886719 576.949219 386.074219 577 386.261719 C 577.050781 386.445312 577.121094 386.621094 577.21875 386.789062 C 577.316406 386.953125 577.429688 387.105469 577.566406 387.242188 C 577.703125 387.378906 577.851562 387.496094 578.019531 387.59375 L 595.152344 397.929688 C 595.402344 398.101562 595.679688 398.21875 595.980469 398.277344 C 596.277344 398.335938 596.578125 398.332031 596.875 398.269531 C 597.175781 398.203125 597.449219 398.082031 597.695312 397.90625 C 597.945312 397.730469 598.148438 397.507812 598.304688 397.25 C 598.464844 396.988281 598.5625 396.703125 598.605469 396.402344 C 598.648438 396.101562 598.628906 395.800781 598.546875 395.507812 C 598.464844 395.214844 598.328125 394.949219 598.136719 394.710938 C 597.945312 394.472656 597.714844 394.28125 597.445312 394.140625 L 580.316406 383.800781 C 579.964844 383.578125 579.578125 383.46875 579.160156 383.464844 C 578.742188 383.460938 578.355469 383.566406 578 383.78125 Z M 578 383.78125 " fill-opacity="1" fill-rule="nonzero"/></g></g></g><g clip-path="url(#2badae53a0)"><g clip-path="url(#73a62600ba)"><g clip-path="url(#90115f9c53)"><path fill="#2c374b" d="M 293.179688 592.089844 L 1038.960938 159.992188 L 1127.71875 313.183594 L 381.933594 745.277344 Z M 293.179688 592.089844 " fill-opacity="1" fill-rule="nonzero"/></g></g></g><g fill="#299eed" fill-opacity="1"><g transform="translate(391.351685, 713.570214)"><g><path d="M 11 -46.078125 L 16.09375 -9.328125 L 9.28125 -5.375 L 7.015625 -21.5 L 3.015625 -49.796875 L 53.75 -79.1875 L 74.875 -62.84375 L 89.171875 -51.671875 L 82.359375 -47.71875 L 53.015625 -70.421875 Z M 5.296875 -3.078125 L 0 0 L -1.1875 -8.15625 L -19.921875 -140.4375 L -13.484375 -144.171875 L 91.953125 -62.125 L 98.453125 -57.046875 L 93.15625 -53.96875 L 91.640625 -53.09375 L -11.328125 -133.015625 L 6.8125 -3.953125 Z M 51.5 -80.921875 L 2.65625 -52.625 L -8.046875 -127.34375 Z M 8.375 -64.546875 L 38.28125 -81.875 L 1.828125 -110.3125 Z M 8.375 -64.546875 "/></g></g></g><g fill="#299eed" fill-opacity="1"><g transform="translate(503.425948, 648.636066)"><g><path d="M -19.34375 -53.03125 L -52.46875 -110.203125 L -30.125 -123.140625 C -26.207031 -125.410156 -22.078125 -126.789062 -17.734375 -127.28125 C -13.390625 -127.78125 -9.171875 -127.484375 -5.078125 -126.390625 C -0.992188 -125.304688 2.804688 -123.46875 6.328125 -120.875 C 9.859375 -118.28125 12.757812 -115.03125 15.03125 -111.125 C 17.300781 -107.195312 18.679688 -103.0625 19.171875 -98.71875 C 19.671875 -94.375 19.375 -90.15625 18.28125 -86.0625 C 17.1875 -81.976562 15.34375 -78.175781 12.75 -74.65625 C 10.164062 -71.132812 6.914062 -68.238281 3 -65.96875 Z M 6.4375 -3.734375 L 0 0 L -65.921875 -113.78125 L -35.0625 -131.65625 C -30.007812 -134.582031 -24.675781 -136.363281 -19.0625 -137 C -13.445312 -137.644531 -7.945312 -137.25 -2.5625 -135.8125 C 2.8125 -134.382812 7.773438 -131.992188 12.328125 -128.640625 C 16.878906 -125.296875 20.617188 -121.101562 23.546875 -116.0625 C 25.742188 -112.257812 27.316406 -108.234375 28.265625 -103.984375 C 29.210938 -99.734375 29.519531 -95.488281 29.1875 -91.25 C 28.863281 -87.019531 27.878906 -82.828125 26.234375 -78.671875 C 24.585938 -74.515625 22.335938 -70.6875 19.484375 -67.1875 L 74.40625 -43.109375 L 66.453125 -38.5 L 21.609375 -58.296875 L 6.296875 -65.09375 C 10.054688 -67.613281 13.207031 -70.75 15.75 -74.5 C 18.300781 -78.25 20.050781 -82.210938 21 -86.390625 C 21.957031 -90.566406 22.132812 -94.921875 21.53125 -99.453125 C 20.925781 -103.984375 19.453125 -108.273438 17.109375 -112.328125 C 14.617188 -116.617188 11.472656 -120.148438 7.671875 -122.921875 C 3.878906 -125.691406 -0.207031 -127.660156 -4.59375 -128.828125 C -8.976562 -129.992188 -13.503906 -130.316406 -18.171875 -129.796875 C -22.847656 -129.285156 -27.269531 -127.820312 -31.4375 -125.40625 L -55.859375 -111.265625 Z M 4.078125 -54.953125 L -7.859375 -48.03125 L 14.953125 -8.65625 L 8.515625 -4.9375 L -18.03125 -50.75 L 3.75 -63.359375 L 63.796875 -36.96875 L 55.84375 -32.359375 Z M -42.3125 -107.484375 L -16.640625 -63.1875 L -0.734375 -72.40625 C 2.296875 -74.164062 4.820312 -76.429688 6.84375 -79.203125 C 8.863281 -81.972656 10.265625 -84.929688 11.046875 -88.078125 C 11.828125 -91.222656 12.050781 -94.472656 11.71875 -97.828125 C 11.382812 -101.179688 10.34375 -104.375 8.59375 -107.40625 C 6.832031 -110.425781 4.582031 -112.910156 1.84375 -114.859375 C -0.894531 -116.816406 -3.851562 -118.222656 -7.03125 -119.078125 C -10.21875 -119.929688 -13.484375 -120.1875 -16.828125 -119.84375 C -20.179688 -119.507812 -23.375 -118.460938 -26.40625 -116.703125 Z M -42.3125 -107.484375 "/></g></g></g><g fill="#299eed" fill-opacity="1"><g transform="translate(591.078624, 597.85142)"><g><path d="M 21.09375 -96.6875 C 27.78125 -95.332031 33.734375 -93.132812 38.953125 -90.09375 C 44.179688 -87.050781 48.515625 -82.566406 51.953125 -76.640625 C 54.515625 -72.222656 56.140625 -67.515625 56.828125 -62.515625 C 57.523438 -57.523438 57.347656 -52.660156 56.296875 -47.921875 C 55.253906 -43.179688 53.394531 -38.6875 50.71875 -34.4375 C 48.039062 -30.1875 44.601562 -26.59375 40.40625 -23.65625 L 0 0 L -65.921875 -113.78125 L -28.8125 -135.28125 C -24.644531 -137.695312 -20.304688 -139.15625 -15.796875 -139.65625 C -11.296875 -140.164062 -6.929688 -139.832031 -2.703125 -138.65625 C 1.515625 -137.476562 5.40625 -135.5625 8.96875 -132.90625 C 12.53125 -130.25 15.445312 -126.960938 17.71875 -123.046875 C 22.613281 -114.597656 23.738281 -105.8125 21.09375 -96.6875 Z M -55.859375 -111.265625 L 2.703125 -10.171875 L 34.703125 -28.703125 C 38.609375 -30.972656 41.859375 -33.867188 44.453125 -37.390625 C 47.054688 -40.921875 48.882812 -44.675781 49.9375 -48.65625 C 51 -52.644531 51.28125 -56.8125 50.78125 -61.15625 C 50.289062 -65.507812 48.910156 -69.644531 46.640625 -73.5625 C 44.671875 -76.96875 42.269531 -79.875 39.4375 -82.28125 C 36.613281 -84.6875 33.507812 -86.550781 30.125 -87.875 C 26.738281 -89.207031 23.226562 -89.957031 19.59375 -90.125 C 15.96875 -90.289062 12.351562 -89.835938 8.75 -88.765625 C 12.21875 -92.972656 14.238281 -97.851562 14.8125 -103.40625 C 15.382812 -108.96875 14.207031 -114.269531 11.28125 -119.3125 C 9.445312 -122.46875 7.109375 -125.117188 4.265625 -127.265625 C 1.429688 -129.410156 -1.628906 -130.921875 -4.921875 -131.796875 C -8.210938 -132.671875 -11.625 -132.882812 -15.15625 -132.4375 C -18.6875 -132 -22.03125 -130.863281 -25.1875 -129.03125 Z M 3.578125 -13.453125 L -27.015625 -66.28125 L 1.765625 -82.953125 C 2.273438 -83.242188 2.691406 -83.398438 3.015625 -83.421875 L 2.90625 -83.609375 C 6.5625 -85.734375 10.398438 -87.03125 14.421875 -87.5 C 18.441406 -87.976562 22.3125 -87.691406 26.03125 -86.640625 C 29.757812 -85.597656 33.25 -83.867188 36.5 -81.453125 C 39.757812 -79.046875 42.445312 -76.015625 44.5625 -72.359375 C 46.6875 -68.691406 47.96875 -64.875 48.40625 -60.90625 C 48.84375 -56.945312 48.585938 -53.09375 47.640625 -49.34375 C 46.703125 -45.601562 45.023438 -42.101562 42.609375 -38.84375 C 40.191406 -35.59375 37.15625 -32.90625 33.5 -30.78125 Z M -28.234375 -68.359375 L -52.46875 -110.203125 L -23.875 -126.765625 C -20.96875 -128.453125 -17.941406 -129.488281 -14.796875 -129.875 C -11.660156 -130.257812 -8.59375 -130.050781 -5.59375 -129.25 C -2.601562 -128.457031 0.15625 -127.109375 2.6875 -125.203125 C 5.21875 -123.304688 7.328125 -120.90625 9.015625 -118 C 10.691406 -115.101562 11.722656 -112.082031 12.109375 -108.9375 C 12.503906 -105.789062 12.300781 -102.71875 11.5 -99.71875 C 10.707031 -96.726562 9.378906 -93.9375 7.515625 -91.34375 C 5.648438 -88.75 3.328125 -86.644531 0.546875 -85.03125 Z M -42.3125 -107.484375 L -25.515625 -78.515625 L -3.359375 -91.359375 C -1.335938 -92.523438 0.3125 -94.03125 1.59375 -95.875 C 2.882812 -97.726562 3.804688 -99.695312 4.359375 -101.78125 C 4.921875 -103.875 5.066406 -106.023438 4.796875 -108.234375 C 4.535156 -110.453125 3.859375 -112.503906 2.765625 -114.390625 C 1.671875 -116.285156 0.25 -117.863281 -1.5 -119.125 C -3.25 -120.382812 -5.164062 -121.289062 -7.25 -121.84375 C -9.34375 -122.40625 -11.507812 -122.582031 -13.75 -122.375 C -16 -122.175781 -18.132812 -121.492188 -20.15625 -120.328125 Z M -16.859375 -63.5625 L 6.296875 -23.609375 L 28.453125 -36.453125 C 31.097656 -37.984375 33.359375 -39.96875 35.234375 -42.40625 C 37.109375 -44.84375 38.398438 -47.488281 39.109375 -50.34375 C 39.816406 -53.195312 40.007812 -56.132812 39.6875 -59.15625 C 39.375 -62.175781 38.410156 -65.078125 36.796875 -67.859375 C 35.191406 -70.628906 33.140625 -72.9375 30.640625 -74.78125 C 28.140625 -76.625 25.492188 -77.914062 22.703125 -78.65625 C 19.910156 -79.394531 17.003906 -79.609375 13.984375 -79.296875 C 10.972656 -78.984375 8.078125 -78.019531 5.296875 -76.40625 Z M -16.859375 -63.5625 "/></g></g></g><g fill="#299eed" fill-opacity="1"><g transform="translate(676.459524, 548.383007)"><g><path d="M -50.96875 -122.4375 L 14.953125 -8.65625 L 8.515625 -4.9375 L -57.40625 -118.71875 L -54.375 -120.46875 Z M 0 0 L -65.921875 -113.78125 L -59.484375 -117.515625 L 6.4375 -3.734375 Z M 0 0 "/></g></g></g><g fill="#fdfdfd" fill-opacity="1"><g transform="translate(710.914786, 528.420145)"><g><path d="M -7.859375 -48.03125 L 14.953125 -8.65625 L 8.515625 -4.9375 L -18.03125 -50.75 L 4.3125 -63.6875 C 8.476562 -66.101562 11.945312 -69.207031 14.71875 -73 C 17.5 -76.800781 19.472656 -80.894531 20.640625 -85.28125 C 21.804688 -89.664062 22.113281 -94.222656 21.5625 -98.953125 C 21.007812 -103.691406 19.523438 -108.148438 17.109375 -112.328125 C 14.765625 -116.359375 11.691406 -119.757812 7.890625 -122.53125 C 4.097656 -125.3125 -0.00390625 -127.316406 -4.421875 -128.546875 C -8.847656 -129.773438 -13.414062 -130.160156 -18.125 -129.703125 C -22.832031 -129.253906 -27.269531 -127.820312 -31.4375 -125.40625 L -55.859375 -111.265625 L 6.4375 -3.734375 L 0 0 L -65.921875 -113.78125 L -35.0625 -131.65625 C -30.007812 -134.582031 -24.675781 -136.363281 -19.0625 -137 C -13.445312 -137.644531 -7.945312 -137.25 -2.5625 -135.8125 C 2.8125 -134.382812 7.773438 -131.992188 12.328125 -128.640625 C 16.878906 -125.296875 20.617188 -121.101562 23.546875 -116.0625 C 26.472656 -111 28.253906 -105.660156 28.890625 -100.046875 C 29.523438 -94.441406 29.125 -88.945312 27.6875 -83.5625 C 26.257812 -78.1875 23.890625 -73.1875 20.578125 -68.5625 C 17.273438 -63.945312 13.097656 -60.175781 8.046875 -57.25 Z M -52.46875 -110.203125 L -30.125 -123.140625 C -26.207031 -125.410156 -22.054688 -126.757812 -17.671875 -127.1875 C -13.296875 -127.625 -9.0625 -127.296875 -4.96875 -126.203125 C -0.882812 -125.117188 2.914062 -123.28125 6.4375 -120.6875 C 9.96875 -118.09375 12.832031 -114.90625 15.03125 -111.125 C 17.226562 -107.320312 18.570312 -103.25 19.0625 -98.90625 C 19.5625 -94.5625 19.265625 -90.347656 18.171875 -86.265625 C 17.078125 -82.179688 15.253906 -78.34375 12.703125 -74.75 C 10.148438 -71.164062 6.914062 -68.238281 3 -65.96875 L -19.34375 -53.03125 Z M -42.3125 -107.484375 L -16.640625 -63.1875 L -0.734375 -72.40625 C 2.296875 -74.164062 4.789062 -76.410156 6.75 -79.140625 C 8.707031 -81.878906 10.125 -84.804688 11 -87.921875 C 11.882812 -91.046875 12.140625 -94.316406 11.765625 -97.734375 C 11.398438 -101.148438 10.34375 -104.375 8.59375 -107.40625 C 6.832031 -110.425781 4.582031 -112.910156 1.84375 -114.859375 C -0.894531 -116.816406 -3.851562 -118.222656 -7.03125 -119.078125 C -10.21875 -119.929688 -13.484375 -120.1875 -16.828125 -119.84375 C -20.179688 -119.507812 -23.375 -118.460938 -26.40625 -116.703125 Z M -42.3125 -107.484375 "/></g></g></g><g fill="#fdfdfd" fill-opacity="1"><g transform="translate(791.752135, 481.584197)"><g><path d="M -39.9375 -108.625 C -37.457031 -117.46875 -33.539062 -125.414062 -28.1875 -132.46875 C -22.84375 -139.53125 -16.195312 -145.363281 -8.25 -149.96875 C -0.175781 -154.644531 8.367188 -157.492188 17.390625 -158.515625 C 26.421875 -159.535156 35.15625 -158.867188 43.59375 -156.515625 C 52.039062 -154.160156 59.859375 -150.335938 67.046875 -145.046875 C 74.234375 -139.765625 80.128906 -133.148438 84.734375 -125.203125 C 89.410156 -117.128906 92.269531 -108.628906 93.3125 -99.703125 C 94.363281 -90.785156 93.757812 -82.085938 91.5 -73.609375 C 89.238281 -65.140625 85.4375 -57.289062 80.09375 -50.0625 C 74.75 -42.84375 68.039062 -36.894531 59.96875 -32.21875 C 52.019531 -27.613281 43.582031 -24.789062 34.65625 -23.75 C 25.738281 -22.707031 17.0625 -23.28125 8.625 -25.46875 C 0.195312 -27.664062 -7.660156 -31.414062 -14.953125 -36.71875 C -22.242188 -42.03125 -28.265625 -48.785156 -33.015625 -56.984375 C -37.617188 -64.929688 -40.488281 -73.300781 -41.625 -82.09375 C -42.757812 -90.882812 -42.195312 -99.726562 -39.9375 -108.625 Z M -32.75 -106.703125 C -34.8125 -98.929688 -35.320312 -91.085938 -34.28125 -83.171875 C -33.238281 -75.265625 -30.671875 -67.78125 -26.578125 -60.71875 C -22.410156 -53.53125 -17.09375 -47.550781 -10.625 -42.78125 C -4.15625 -38.007812 2.863281 -34.613281 10.4375 -32.59375 C 18.019531 -30.582031 25.769531 -30.015625 33.6875 -30.890625 C 41.613281 -31.773438 49.171875 -34.300781 56.359375 -38.46875 C 63.554688 -42.632812 69.503906 -47.9375 74.203125 -54.375 C 78.910156 -60.8125 82.269531 -67.816406 84.28125 -75.390625 C 86.289062 -82.960938 86.835938 -90.738281 85.921875 -98.71875 C 85.003906 -106.707031 82.460938 -114.296875 78.296875 -121.484375 C 74.128906 -128.671875 68.828125 -134.617188 62.390625 -139.328125 C 55.960938 -144.035156 48.992188 -147.414062 41.484375 -149.46875 C 33.972656 -151.519531 26.222656 -152.082031 18.234375 -151.15625 C 10.253906 -150.238281 2.664062 -147.695312 -4.53125 -143.53125 C -11.59375 -139.4375 -17.539062 -134.21875 -22.375 -127.875 C -27.21875 -121.539062 -30.675781 -114.484375 -32.75 -106.703125 Z M -3.3125 -141.453125 C 3.5 -145.398438 10.75 -147.789062 18.4375 -148.625 C 26.132812 -149.457031 33.601562 -148.9375 40.84375 -147.0625 C 48.082031 -145.195312 54.800781 -141.96875 61 -137.375 C 67.195312 -132.789062 72.269531 -127.09375 76.21875 -120.28125 C 80.164062 -113.46875 82.585938 -106.234375 83.484375 -98.578125 C 84.378906 -90.921875 83.859375 -83.453125 81.921875 -76.171875 C 79.992188 -68.890625 76.734375 -62.148438 72.140625 -55.953125 C 67.546875 -49.753906 61.84375 -44.679688 55.03125 -40.734375 C 48.21875 -36.785156 40.984375 -34.363281 33.328125 -33.46875 C 25.679688 -32.570312 18.21875 -33.09375 10.9375 -35.03125 C 3.65625 -36.976562 -3.082031 -40.242188 -9.28125 -44.828125 C -15.476562 -49.410156 -20.550781 -55.109375 -24.5 -61.921875 C -28.445312 -68.734375 -30.867188 -75.96875 -31.765625 -83.625 C -32.660156 -91.289062 -32.148438 -98.707031 -30.234375 -105.875 C -28.328125 -113.050781 -25.097656 -119.769531 -20.546875 -126.03125 C -15.992188 -132.289062 -10.25 -137.429688 -3.3125 -141.453125 Z M 0.40625 -135.015625 C -5.644531 -131.503906 -10.675781 -127.03125 -14.6875 -121.59375 C -18.695312 -116.15625 -21.519531 -110.265625 -23.15625 -103.921875 C -24.800781 -97.578125 -25.222656 -91.09375 -24.421875 -84.46875 C -23.617188 -77.84375 -21.5 -71.566406 -18.0625 -65.640625 C -14.550781 -59.585938 -10.078125 -54.554688 -4.640625 -50.546875 C 0.796875 -46.535156 6.65625 -43.691406 12.9375 -42.015625 C 19.226562 -40.347656 25.710938 -39.929688 32.390625 -40.765625 C 39.078125 -41.597656 45.382812 -43.734375 51.3125 -47.171875 C 57.238281 -50.609375 62.226562 -55.015625 66.28125 -60.390625 C 70.332031 -65.773438 73.191406 -71.609375 74.859375 -77.890625 C 76.523438 -84.171875 76.972656 -90.671875 76.203125 -97.390625 C 75.429688 -104.109375 73.289062 -110.492188 69.78125 -116.546875 C 66.34375 -122.472656 61.921875 -127.410156 56.515625 -131.359375 C 51.109375 -135.316406 45.25 -138.160156 38.9375 -139.890625 C 32.625 -141.628906 26.140625 -142.128906 19.484375 -141.390625 C 12.828125 -140.648438 6.46875 -138.523438 0.40625 -135.015625 Z M 0.40625 -135.015625 "/></g></g></g><g fill="#fdfdfd" fill-opacity="1"><g transform="translate(924.083064, 404.913641)"><g><path d="M 52.421875 -41.75 L 3.578125 -13.453125 L -57.40625 -118.71875 L -50.96875 -122.4375 L 6.296875 -23.609375 L 48.703125 -48.1875 L 50.671875 -44.78125 Z M 57.359375 -33.234375 L 0 0 L -65.921875 -113.78125 L -59.484375 -117.515625 L 2.703125 -10.171875 L 53.625 -39.671875 Z M 57.359375 -33.234375 "/></g></g></g><g fill="#fdfdfd" fill-opacity="1"><g transform="translate(997.158513, 362.574821)"><g><path d="M 48.515625 -48.078125 L 57.171875 -33.125 L 50.734375 -29.390625 L 47 -35.828125 L 18.703125 -84.671875 L 23.421875 -143.796875 L 25.53125 -166.765625 L 33.28125 -171.265625 L 31.25 -148.59375 L 26.34375 -86.328125 Z M 42.03125 -24.359375 L 11.203125 -77.5625 L -65.921875 -113.78125 L -58.15625 -118.28125 L 16.4375 -83.359375 L 48.46875 -28.078125 Z M -47.75 -124.3125 L -42.015625 -121.8125 L 9.796875 -97.453125 L 15.109375 -160.734375 L 22.875 -165.234375 L 16.265625 -86.28125 L -39.984375 -112.640625 L -55.515625 -119.8125 Z M -47.75 -124.3125 "/></g></g></g></svg>