<svg xmlns="http://www.w3.org/2000/svg" xmlns:xlink="http://www.w3.org/1999/xlink" width="500" zoomAndPan="magnify" viewBox="0 0 375 374.999991" height="500" preserveAspectRatio="xMidYMid meet" version="1.0"><defs><clipPath id="dd27675430"><path d="M 58.460938 58.460938 L 316.460938 58.460938 L 316.460938 316.460938 L 58.460938 316.460938 Z M 58.460938 58.460938 " clip-rule="nonzero"/></clipPath></defs><g clip-path="url(#dd27675430)"><path fill="#24a2ee" d="M 97.160156 58.460938 L 277.761719 58.460938 C 279.027344 58.460938 280.292969 58.523438 281.554688 58.648438 C 282.816406 58.769531 284.066406 58.957031 285.3125 59.203125 C 286.554688 59.453125 287.78125 59.757812 288.996094 60.128906 C 290.207031 60.496094 291.398438 60.921875 292.570312 61.40625 C 293.742188 61.890625 294.886719 62.433594 296.003906 63.03125 C 297.121094 63.628906 298.207031 64.277344 299.261719 64.984375 C 300.316406 65.6875 301.332031 66.441406 302.3125 67.246094 C 303.292969 68.050781 304.230469 68.898438 305.125 69.796875 C 306.023438 70.691406 306.871094 71.628906 307.675781 72.609375 C 308.480469 73.589844 309.234375 74.605469 309.9375 75.660156 C 310.644531 76.714844 311.292969 77.800781 311.890625 78.917969 C 312.488281 80.035156 313.03125 81.179688 313.515625 82.351562 C 314 83.523438 314.425781 84.714844 314.792969 85.925781 C 315.164062 87.140625 315.46875 88.367188 315.71875 89.609375 C 315.964844 90.855469 316.148438 92.105469 316.273438 93.367188 C 316.398438 94.628906 316.460938 95.894531 316.460938 97.160156 L 316.460938 277.761719 C 316.460938 279.027344 316.398438 280.292969 316.273438 281.554688 C 316.148438 282.816406 315.964844 284.066406 315.71875 285.3125 C 315.46875 286.554688 315.164062 287.78125 314.792969 288.996094 C 314.425781 290.207031 314 291.398438 313.515625 292.570312 C 313.03125 293.742188 312.488281 294.886719 311.890625 296.003906 C 311.292969 297.121094 310.644531 298.207031 309.9375 299.261719 C 309.234375 300.316406 308.480469 301.332031 307.675781 302.3125 C 306.871094 303.292969 306.023438 304.230469 305.125 305.125 C 304.230469 306.023438 303.292969 306.871094 302.3125 307.675781 C 301.332031 308.480469 300.316406 309.234375 299.261719 309.9375 C 298.207031 310.644531 297.121094 311.292969 296.003906 311.890625 C 294.886719 312.488281 293.742188 313.03125 292.570312 313.515625 C 291.398438 314 290.207031 314.425781 288.996094 314.792969 C 287.78125 315.164062 286.554688 315.46875 285.3125 315.71875 C 284.066406 315.964844 282.816406 316.148438 281.554688 316.273438 C 280.292969 316.398438 279.027344 316.460938 277.761719 316.460938 L 97.160156 316.460938 C 95.894531 316.460938 94.628906 316.398438 93.367188 316.273438 C 92.105469 316.148438 90.855469 315.964844 89.609375 315.71875 C 88.367188 315.46875 87.140625 315.164062 85.925781 314.792969 C 84.714844 314.425781 83.523438 314 82.351562 313.515625 C 81.179688 313.03125 80.035156 312.488281 78.917969 311.890625 C 77.800781 311.292969 76.714844 310.644531 75.660156 309.9375 C 74.605469 309.234375 73.589844 308.480469 72.609375 307.675781 C 71.628906 306.871094 70.691406 306.023438 69.796875 305.125 C 68.898438 304.230469 68.050781 303.292969 67.246094 302.3125 C 66.441406 301.332031 65.6875 300.316406 64.984375 299.261719 C 64.277344 298.207031 63.628906 297.121094 63.03125 296.003906 C 62.433594 294.886719 61.890625 293.742188 61.40625 292.570312 C 60.921875 291.398438 60.496094 290.207031 60.128906 288.996094 C 59.757812 287.78125 59.453125 286.554688 59.203125 285.3125 C 58.957031 284.066406 58.769531 282.816406 58.648438 281.554688 C 58.523438 280.292969 58.460938 279.027344 58.460938 277.761719 L 58.460938 97.160156 C 58.460938 95.894531 58.523438 94.628906 58.648438 93.367188 C 58.769531 92.105469 58.957031 90.855469 59.203125 89.609375 C 59.453125 88.367188 59.757812 87.140625 60.128906 85.925781 C 60.496094 84.714844 60.921875 83.523438 61.40625 82.351562 C 61.890625 81.179688 62.433594 80.035156 63.03125 78.917969 C 63.628906 77.800781 64.277344 76.714844 64.984375 75.660156 C 65.6875 74.605469 66.441406 73.589844 67.246094 72.609375 C 68.050781 71.628906 68.898438 70.691406 69.796875 69.796875 C 70.691406 68.898438 71.628906 68.050781 72.609375 67.246094 C 73.589844 66.441406 74.605469 65.6875 75.660156 64.984375 C 76.714844 64.277344 77.800781 63.628906 78.917969 63.03125 C 80.035156 62.433594 81.179688 61.890625 82.351562 61.40625 C 83.523438 60.921875 84.714844 60.496094 85.925781 60.128906 C 87.140625 59.757812 88.367188 59.453125 89.609375 59.203125 C 90.855469 58.957031 92.105469 58.769531 93.367188 58.648438 C 94.628906 58.523438 95.894531 58.460938 97.160156 58.460938 Z M 97.160156 58.460938 " fill-opacity="1" fill-rule="nonzero"/></g><path fill="#c8daea" d="M 158.738281 262.039062 C 153.195312 262.039062 153.699219 260.023438 152.1875 254.984375 L 136.0625 202.074219 L 259.519531 129.511719 " fill-opacity="1" fill-rule="nonzero"/><path fill="#a9c9dd" d="M 158.738281 262.039062 C 162.265625 262.039062 164.28125 260.023438 166.800781 258.007812 L 189.476562 236.339844 L 161.257812 219.207031 " fill-opacity="1" fill-rule="nonzero"/><path fill="#f6fbfe" d="M 161.257812 219.207031 L 229.285156 269.09375 C 236.339844 273.628906 242.386719 271.109375 244.402344 262.039062 L 272.117188 132.03125 C 274.636719 120.945312 267.582031 115.90625 260.023438 119.433594 L 98.269531 181.917969 C 87.6875 185.949219 87.6875 192.5 96.253906 195.019531 L 138.078125 208.121094 L 233.820312 147.148438 C 238.355469 144.628906 242.386719 145.636719 239.363281 149.164062 " fill-opacity="1" fill-rule="nonzero"/></svg>