<svg xmlns="http://www.w3.org/2000/svg" xmlns:xlink="http://www.w3.org/1999/xlink" width="500" zoomAndPan="magnify" viewBox="0 0 375 374.999991" height="500" preserveAspectRatio="xMidYMid meet" version="1.0"><defs><clipPath id="ad2e1994a9"><path d="M 54.496094 54.496094 L 320.746094 54.496094 L 320.746094 320.746094 L 54.496094 320.746094 Z M 54.496094 54.496094 " clip-rule="nonzero"/></clipPath></defs><g clip-path="url(#ad2e1994a9)"><path fill="#24a2ee" d="M 287.464844 320.746094 L 87.777344 320.746094 C 69.40625 320.746094 54.496094 305.835938 54.496094 287.464844 L 54.496094 87.777344 C 54.496094 69.40625 69.40625 54.496094 87.777344 54.496094 L 287.464844 54.496094 C 305.835938 54.496094 320.746094 69.40625 320.746094 87.777344 L 320.746094 287.464844 C 320.746094 305.835938 305.835938 320.746094 287.464844 320.746094 Z M 287.464844 320.746094 " fill-opacity="1" fill-rule="nonzero"/></g><path fill="#ffffff" d="M 156.738281 255.25 C 219.503906 255.25 253.851562 203.195312 253.851562 158.132812 C 253.851562 156.667969 253.851562 155.207031 253.785156 153.742188 C 260.441406 148.949219 266.230469 142.890625 270.824219 136.035156 C 264.699219 138.765625 258.109375 140.5625 251.1875 141.425781 C 258.246094 137.234375 263.636719 130.511719 266.230469 122.523438 C 259.640625 126.449219 252.320312 129.246094 244.53125 130.777344 C 238.277344 124.121094 229.421875 119.992188 219.636719 119.992188 C 200.800781 119.992188 185.492188 135.304688 185.492188 154.140625 C 185.492188 156.804688 185.824219 159.398438 186.355469 161.929688 C 158 160.53125 132.839844 146.886719 116 126.25 C 113.070312 131.308594 111.40625 137.167969 111.40625 143.425781 C 111.40625 155.273438 117.464844 165.722656 126.582031 171.847656 C 120.992188 171.644531 115.734375 170.117188 111.140625 167.585938 C 111.140625 167.71875 111.140625 167.851562 111.140625 168.050781 C 111.140625 184.558594 122.921875 198.40625 138.5 201.53125 C 135.636719 202.332031 132.640625 202.730469 129.511719 202.730469 C 127.316406 202.730469 125.1875 202.53125 123.121094 202.132812 C 127.449219 215.710938 140.097656 225.5625 155.003906 225.828125 C 143.289062 235.015625 128.582031 240.472656 112.605469 240.472656 C 109.875 240.472656 107.148438 240.339844 104.484375 240.007812 C 119.527344 249.589844 137.5 255.25 156.738281 255.25 " fill-opacity="1" fill-rule="nonzero"/></svg>